<svg xmlns="http://www.w3.org/2000/svg" viewBox="0 0 760 108" fill="none">
  <defs>
    <linearGradient id="dg" x1="0" y1="0" x2="0" y2="1">
      <stop offset="0%" stop-color="#B09EFF"/>
      <stop offset="100%" stop-color="#5B3FD4"/>
    </linearGradient>
    <filter id="glow" x="-60%" y="-60%" width="220%" height="220%">
      <feGaussianBlur stdDeviation="4.5" result="blur"/>
      <feMerge><feMergeNode in="blur"/><feMergeNode in="SourceGraphic"/></feMerge>
    </filter>
  </defs>

  <!-- Diamond icon -->
  <polygon
    points="260.86474609375,4.300000000000001 286.86474609375,30.3 260.86474609375,56.3 234.86474609375,30.3"
    fill="url(#dg)"
    filter="url(#glow)"
  />

  <!-- DEPTH wordmark (paths — no font dependency) -->
  <path fill="#EAE6FF" d="M324.24 52L314.49 52L314.49 46.13L324.45 46.13Q329.33 46.13 332 43.60Q334.68 41.07 334.68 36.47L334.68 23.51Q334.68 18.91 332 16.38Q329.33 13.86 324.45 13.86L314.49 13.86L314.49 7.98L324.27 7.98Q332.26 7.98 336.64 12.11Q341.01 16.25 341.01 23.75L341.01 36.23Q341.01 41.22 339.04 44.75Q337.08 48.28 333.32 50.14Q329.57 52 324.24 52M316.49 52L310.31 52L310.31 7.98L316.49 7.98 M365.18 52L359 52L359 7.98L365.18 7.98L365.18 52M387.28 52L362 52L362 46.13L387.28 46.13L387.28 52M383.95 33.08L362 33.08L362 27.21L383.95 27.21L383.95 33.08M387.28 13.86L362 13.86L362 7.98L387.28 7.98 M421.10 34.93L407.23 34.93L407.23 29.05L421.31 29.05Q424.34 29.05 426.17 26.96Q428 24.88 428 21.48Q428 18.03 426.17 15.94Q424.34 13.86 421.31 13.86L407.23 13.86L407.23 7.98L421.10 7.98Q425.10 7.98 428.06 9.66Q431.03 11.34 432.68 14.37Q434.33 17.40 434.33 21.48Q434.33 25.54 432.68 28.57Q431.03 31.60 428.06 33.26Q425.10 34.93 421.10 34.93M410.23 52L404.06 52L404.06 7.98L410.23 7.98 M463.22 52L457.04 52L457.04 11.58L463.22 11.58L463.22 52M475.66 13.86L444.60 13.86L444.60 7.98L475.66 7.98 M519.69 52L513.51 52L513.51 7.98L519.69 7.98L519.69 52M494.68 52L488.50 52L488.50 7.98L494.68 7.98L494.68 52M516.78 33.26L492.35 33.26L492.35 27.39L516.78 27.39"/>

  <!-- Tagline (paths) -->
  <path fill="#7069A4" d="M289.23 78.77L283.37 85.89L283.56 83.95L287.63 78.77L289.23 78.77M283.84 88L282.54 88L282.54 78.77L283.84 78.77L283.84 88M289.61 88L288.03 88L285.09 83.07L286.11 82.13 M292.05 88L290.76 88L290.76 81.41L292.05 81.41L292.05 88M296.05 88L294.75 88L294.75 84.01Q294.75 83.31 294.40 82.93Q294.04 82.55 293.38 82.55Q292.74 82.55 292.40 82.88Q292.05 83.22 292.05 83.83L291.92 82.56Q292.22 81.96 292.71 81.64Q293.21 81.32 293.80 81.32Q294.87 81.32 295.46 82.02Q296.05 82.72 296.05 84 M300.54 88.10Q299.25 88.10 298.54 87.34Q297.83 86.59 297.83 85.23L297.83 84.15Q297.83 82.80 298.54 82.06Q299.25 81.32 300.54 81.32Q301.84 81.32 302.55 82.06Q303.26 82.80 303.26 84.15L303.26 85.25Q303.26 86.60 302.55 87.35Q301.84 88.10 300.54 88.10M300.54 86.86Q301.22 86.86 301.59 86.44Q301.97 86.01 301.97 85.25L301.97 84.15Q301.97 83.39 301.59 82.97Q301.22 82.55 300.54 82.55Q299.87 82.55 299.50 82.97Q299.12 83.39 299.12 84.15L299.12 85.25Q299.12 86.01 299.50 86.44Q299.87 86.86 300.54 86.86 M307.54 88L306.56 88L304.53 81.41L305.88 81.41L307.05 86.11L308.69 81.41L309.59 81.41L311.24 86.11L312.41 81.41L313.76 81.41L311.73 88L310.75 88L309.14 83.45 M320.02 88.86L322.46 81.41L323.78 81.41L320.98 89.54Q320.74 90.22 320.30 90.49Q319.85 90.75 319.08 90.75L318.82 90.75L318.82 89.50L319.08 89.50Q319.44 89.50 319.65 89.36Q319.87 89.21 320.02 88.86M321.29 87.14L320.58 88.54L317.95 81.41L319.27 81.41 M327.45 88.10Q326.16 88.10 325.45 87.34Q324.73 86.59 324.73 85.23L324.73 84.15Q324.73 82.80 325.45 82.06Q326.16 81.32 327.45 81.32Q328.75 81.32 329.46 82.06Q330.17 82.80 330.17 84.15L330.17 85.25Q330.17 86.60 329.46 87.35Q328.75 88.10 327.45 88.10M327.45 86.86Q328.13 86.86 328.50 86.44Q328.87 86.01 328.87 85.25L328.87 84.15Q328.87 83.39 328.50 82.97Q328.13 82.55 327.45 82.55Q326.78 82.55 326.40 82.97Q326.03 83.39 326.03 84.15L326.03 85.25Q326.03 86.01 326.40 86.44Q326.78 86.86 327.45 86.86 M337.27 88L335.98 88L335.98 81.41L337.27 81.41L337.27 88M332.01 81.41L333.30 81.41L333.30 85.42Q333.30 86.11 333.66 86.49Q334.01 86.86 334.65 86.86Q335.29 86.86 335.64 86.52Q335.98 86.18 335.98 85.57L336.07 86.95Q335.89 87.39 335.45 87.74Q335 88.10 334.29 88.10Q333.20 88.10 332.60 87.39Q332.01 86.69 332.01 85.42 M340.53 88L339.24 88L339.24 81.41L340.53 81.41L340.53 88M343.71 81.83L342.86 82.97Q342.69 82.76 342.43 82.66Q342.17 82.55 341.83 82.55Q341.21 82.55 340.87 82.89Q340.53 83.23 340.53 83.83L340.40 82.56Q340.70 81.98 341.18 81.65Q341.67 81.32 342.25 81.32Q342.70 81.32 343.07 81.45Q343.43 81.58 343.71 81.83 M348.28 78.77L349.57 78.77L349.57 86.30Q349.57 86.53 349.68 86.67Q349.78 86.80 349.97 86.80L350.58 86.80L350.58 88.03L349.82 88.03Q349.09 88.03 348.68 87.57Q348.28 87.12 348.28 86.29 M354.57 88.10Q353.27 88.10 352.56 87.34Q351.85 86.59 351.85 85.23L351.85 84.15Q351.85 82.80 352.56 82.06Q353.27 81.32 354.57 81.32Q355.86 81.32 356.57 82.06Q357.28 82.80 357.28 84.15L357.28 85.25Q357.28 86.60 356.57 87.35Q355.86 88.10 354.57 88.10M354.57 86.86Q355.25 86.86 355.62 86.44Q355.99 86.01 355.99 85.25L355.99 84.15Q355.99 83.39 355.62 82.97Q355.25 82.55 354.57 82.55Q353.90 82.55 353.52 82.97Q353.15 83.39 353.15 84.15L353.15 85.25Q353.15 86.01 353.52 86.44Q353.90 86.86 354.57 86.86 M362.08 88.10Q361.46 88.10 361 87.80Q360.55 87.50 360.33 86.97L360.42 85.59Q360.42 86.01 360.57 86.31Q360.73 86.61 361.01 86.77Q361.30 86.93 361.72 86.93Q362.36 86.93 362.71 86.54Q363.06 86.15 363.06 85.44L363.06 84.01Q363.06 83.28 362.71 82.88Q362.36 82.48 361.72 82.48Q361.30 82.48 361.01 82.64Q360.73 82.79 360.57 83.08Q360.42 83.37 360.42 83.79L360.29 82.52Q360.59 81.94 361.07 81.63Q361.55 81.32 362.14 81.32Q363.20 81.32 363.78 82.02Q364.36 82.72 364.36 84L364.36 85.44Q364.36 86.70 363.76 87.40Q363.16 88.10 362.08 88.10M360.42 88L359.13 88L359.13 78.77L360.42 78.77 M369.15 88.10Q368.53 88.10 368.08 87.80Q367.62 87.50 367.40 86.97L367.49 85.59Q367.49 86.01 367.64 86.31Q367.80 86.61 368.09 86.77Q368.37 86.93 368.79 86.93Q369.43 86.93 369.78 86.54Q370.13 86.15 370.13 85.44L370.13 84.01Q370.13 83.28 369.78 82.88Q369.43 82.48 368.79 82.48Q368.37 82.48 368.09 82.64Q367.80 82.79 367.64 83.08Q367.49 83.37 367.49 83.79L367.36 82.52Q367.66 81.94 368.14 81.63Q368.62 81.32 369.21 81.32Q370.27 81.32 370.85 82.02Q371.43 82.72 371.43 84L371.43 85.44Q371.43 86.70 370.83 87.40Q370.23 88.10 369.15 88.10M367.49 88L366.20 88L366.20 78.77L367.49 78.77 M374.65 88.86L377.08 81.41L378.40 81.41L375.60 89.54Q375.36 90.22 374.92 90.49Q374.47 90.75 373.70 90.75L373.44 90.75L373.44 89.50L373.70 89.50Q374.06 89.50 374.27 89.36Q374.49 89.21 374.65 88.86M375.92 87.14L375.20 88.54L372.57 81.41L373.89 81.41 M380.68 88L379.32 88L379.32 86.64L380.68 86.64 M389.85 88L386.87 88L386.87 86.80L389.37 86.80Q390.40 86.80 390.83 86.41Q391.26 86.01 391.26 85.37L391.26 85.35Q391.26 84.67 390.89 84.26Q390.53 83.85 389.69 83.85L386.87 83.85L386.87 82.68L389.69 82.68Q390.41 82.68 390.77 82.34Q391.14 82 391.14 81.35Q391.14 80.66 390.73 80.31Q390.32 79.97 389.51 79.97L386.87 79.97L386.87 78.77L389.75 78.77Q391.11 78.77 391.78 79.45Q392.44 80.13 392.44 81.27Q392.44 81.96 392.04 82.54Q391.63 83.11 390.76 83.27Q391.62 83.40 392.09 84.03Q392.57 84.65 392.57 85.47L392.57 85.49Q392.57 86.62 391.84 87.31Q391.11 88 389.85 88M387.40 88L386.11 88L386.11 78.77L387.40 78.77 M397.07 88.10Q395.69 88.10 394.94 87.33Q394.18 86.56 394.18 85.14L394.18 84.40Q394.18 82.93 394.91 82.12Q395.64 81.32 396.96 81.32Q398.20 81.32 398.88 82.23Q399.57 83.14 399.57 84.79L399.57 85.23L395.12 85.23L395.12 84.19L398.34 84.19Q398.28 83.39 397.92 82.93Q397.56 82.48 396.96 82.48Q396.23 82.48 395.82 82.97Q395.42 83.45 395.42 84.33L395.42 85.17Q395.42 85.99 395.85 86.43Q396.28 86.86 397.07 86.86Q397.47 86.86 397.85 86.71Q398.24 86.55 398.54 86.26L399.40 87.11Q398.91 87.58 398.30 87.84Q397.69 88.10 397.07 88.10 M402.83 88L401.53 88L401.53 80.52Q401.53 79.65 401.93 79.21Q402.33 78.77 403.18 78.77L404.13 78.77L404.13 80L403.20 80Q403.01 80 402.92 80.15Q402.83 80.30 402.83 80.50L402.83 88M404.13 82.52L400.84 82.52L400.84 81.41L404.13 81.41 M407.99 88.10Q406.70 88.10 405.98 87.34Q405.27 86.59 405.27 85.23L405.27 84.15Q405.27 82.80 405.98 82.06Q406.70 81.32 407.99 81.32Q409.28 81.32 410 82.06Q410.71 82.80 410.71 84.15L410.71 85.25Q410.71 86.60 410 87.35Q409.28 88.10 407.99 88.10M407.99 86.86Q408.67 86.86 409.04 86.44Q409.41 86.01 409.41 85.25L409.41 84.15Q409.41 83.39 409.04 82.97Q408.67 82.55 407.99 82.55Q407.32 82.55 406.94 82.97Q406.57 83.39 406.57 84.15L406.57 85.25Q406.57 86.01 406.94 86.44Q407.32 86.86 407.99 86.86 M413.84 88L412.55 88L412.55 81.41L413.84 81.41L413.84 88M417.02 81.83L416.17 82.97Q416 82.76 415.74 82.66Q415.48 82.55 415.14 82.55Q414.52 82.55 414.18 82.89Q413.84 83.23 413.84 83.83L413.71 82.56Q414.01 81.98 414.49 81.65Q414.98 81.32 415.56 81.32Q416.01 81.32 416.38 81.45Q416.74 81.58 417.02 81.83 M420.79 88.10Q419.42 88.10 418.66 87.33Q417.91 86.56 417.91 85.14L417.91 84.40Q417.91 82.93 418.63 82.12Q419.36 81.32 420.68 81.32Q421.92 81.32 422.61 82.23Q423.29 83.14 423.29 84.79L423.29 85.23L418.84 85.23L418.84 84.19L422.06 84.19Q422 83.39 421.64 82.93Q421.28 82.48 420.68 82.48Q419.95 82.48 419.54 82.97Q419.14 83.45 419.14 84.33L419.14 85.17Q419.14 85.99 419.57 86.43Q420.01 86.86 420.79 86.86Q421.19 86.86 421.57 86.71Q421.96 86.55 422.27 86.26L423.12 87.11Q422.63 87.58 422.02 87.84Q421.41 88.10 420.79 88.10 M429.93 88.86L432.37 81.41L433.69 81.41L430.89 89.54Q430.65 90.22 430.21 90.49Q429.76 90.75 428.99 90.75L428.73 90.75L428.73 89.50L428.99 89.50Q429.35 89.50 429.56 89.36Q429.78 89.21 429.93 88.86M431.20 87.14L430.49 88.54L427.86 81.41L429.18 81.41 M437.36 88.10Q436.07 88.10 435.35 87.34Q434.64 86.59 434.64 85.23L434.64 84.15Q434.64 82.80 435.35 82.06Q436.07 81.32 437.36 81.32Q438.66 81.32 439.37 82.06Q440.08 82.80 440.08 84.15L440.08 85.25Q440.08 86.60 439.37 87.35Q438.66 88.10 437.36 88.10M437.36 86.86Q438.04 86.86 438.41 86.44Q438.78 86.01 438.78 85.25L438.78 84.15Q438.78 83.39 438.41 82.97Q438.04 82.55 437.36 82.55Q436.69 82.55 436.31 82.97Q435.94 83.39 435.94 84.15L435.94 85.25Q435.94 86.01 436.31 86.44Q436.69 86.86 437.36 86.86 M447.18 88L445.89 88L445.89 81.41L447.18 81.41L447.18 88M441.92 81.41L443.21 81.41L443.21 85.42Q443.21 86.11 443.57 86.49Q443.92 86.86 444.56 86.86Q445.20 86.86 445.55 86.52Q445.89 86.18 445.89 85.57L445.98 86.95Q445.80 87.39 445.36 87.74Q444.91 88.10 444.20 88.10Q443.11 88.10 442.51 87.39Q441.92 86.69 441.92 85.42 M453.93 90.68L452.64 90.68L452.64 81.41L453.93 81.41L453.93 90.68M455.59 88.10Q454.98 88.10 454.52 87.80Q454.06 87.50 453.85 86.97L453.93 85.59Q453.93 86.01 454.09 86.31Q454.24 86.61 454.53 86.77Q454.82 86.93 455.23 86.93Q455.87 86.93 456.22 86.54Q456.57 86.15 456.57 85.44L456.57 84.01Q456.57 83.28 456.22 82.88Q455.87 82.48 455.23 82.48Q454.82 82.48 454.53 82.64Q454.24 82.79 454.09 83.08Q453.93 83.37 453.93 83.79L453.80 82.52Q454.10 81.94 454.58 81.63Q455.06 81.32 455.65 81.32Q456.71 81.32 457.29 82.02Q457.87 82.72 457.87 84L457.87 85.44Q457.87 86.70 457.27 87.40Q456.68 88.10 455.59 88.10 M459.71 78.77L461.01 78.77L461.01 86.30Q461.01 86.53 461.11 86.67Q461.22 86.80 461.41 86.80L462.01 86.80L462.01 88.03L461.25 88.03Q460.52 88.03 460.12 87.57Q459.71 87.12 459.71 86.29 M468.43 88L467.19 88L467.19 83.82Q467.19 83.18 466.85 82.82Q466.50 82.46 465.87 82.46Q465.48 82.46 465.10 82.58Q464.73 82.69 464.43 82.92L463.48 82.27Q463.86 81.82 464.47 81.57Q465.08 81.32 465.83 81.32Q467.07 81.32 467.75 81.96Q468.43 82.60 468.43 83.77L468.43 88M465.58 88.10Q464.37 88.10 463.76 87.59Q463.16 87.09 463.16 86.06Q463.16 85.07 463.71 84.59Q464.27 84.10 465.38 84.10L467.25 84.10L467.34 85.14L465.39 85.14Q464.88 85.14 464.63 85.37Q464.38 85.59 464.38 86.06Q464.38 86.56 464.71 86.80Q465.05 87.04 465.72 87.04Q466.46 87.04 466.83 86.88Q467.19 86.72 467.19 86.39L467.33 87.31Q467.16 87.58 466.90 87.75Q466.65 87.92 466.32 88.01Q465.99 88.10 465.58 88.10 M471.77 88.86L474.21 81.41L475.53 81.41L472.72 89.54Q472.49 90.22 472.04 90.49Q471.60 90.75 470.83 90.75L470.57 90.75L470.57 89.50L470.83 89.50Q471.19 89.50 471.40 89.36Q471.61 89.21 471.77 88.86M473.04 87.14L472.32 88.54L469.70 81.41L471.02 81.41 M477.81 88L476.45 88L476.45 86.64L477.81 86.64"/>
</svg>